<?xml version="1.0" encoding="utf-8"?>
<!-- Generator: Adobe Illustrator 16.0.0, SVG Export Plug-In . SVG Version: 6.00 Build 0)  -->
<!DOCTYPE svg PUBLIC "-//W3C//DTD SVG 1.1//EN" "http://www.w3.org/Graphics/SVG/1.1/DTD/svg11.dtd">
<svg version="1.1" id="레이어_1" xmlns="http://www.w3.org/2000/svg" xmlns:xlink="http://www.w3.org/1999/xlink" x="0px"
	 y="0px" width="30px" height="30px" viewBox="0 0 30 30" enable-background="new 0 0 30 30" xml:space="preserve">
<path fill="#FFFFFF" d="M15,0C6.716,0,0,6.716,0,15c0,8.283,6.716,15,15,15c8.283,0,15-6.717,15-15C30,6.716,23.283,0,15,0z
	 M22.959,16.56H16.56v6.399c0,0.861-0.698,1.559-1.56,1.559s-1.559-0.697-1.559-1.559V16.56h-6.4c-0.861,0-1.56-0.698-1.56-1.56
	c0-0.86,0.699-1.559,1.56-1.559h6.4v-6.4c0-0.861,0.698-1.56,1.559-1.56s1.56,0.699,1.56,1.56v6.4h6.399
	c0.861,0,1.559,0.699,1.559,1.559C24.518,15.861,23.82,16.56,22.959,16.56z"/>
</svg>
